<svg xmlns="http://www.w3.org/2000/svg" width="449.37" height="118.21" viewBox="0 0 449.37 118.21">
  <g>
    <path d="M44.67,34.63a43.58,43.58,0,0,1,.63,12.42H28V83.45a54.58,54.58,0,0,1,12.17,2.63,27.76,27.76,0,0,1,.75,9.79H.5a35.43,35.43,0,0,1,2-9.16A26.12,26.12,0,0,1,9.79,83.2V47.06H0c.25-3,1.26-8.79,2.51-11.55a28.41,28.41,0,0,1,7.28-2.89V28.49c0-18.07,11.29-26.1,28.74-26.1C44.3,2.38,53,3.64,58.35,5.65a28.26,28.26,0,0,1,.5,5.77,54.11,54.11,0,0,1-2,13.55c-3.89-.25-10.79-1.63-13.93-3.14V14.31a15.29,15.29,0,0,0-5.4-1c-5.9,0-9.54,4.77-9.54,13.55v7.78Z"/>
    <path d="M80.94,46.68C82.32,40,88.35,32.5,97.13,32.5a16.14,16.14,0,0,1,6.4,1.26C105.16,36,106,40.41,106,44.67a21,21,0,0,1-.75,5.9c-2.63-1.51-7.15-2.13-9.54-2.13-5.52,0-10.67,3-13.93,8.28V83.45a55.76,55.76,0,0,1,12.3,2.63,27.78,27.78,0,0,1,.75,9.79H54.34a35.43,35.43,0,0,1,2-9.16,30.1,30.1,0,0,1,7.28-3.51V47.56H54.84C54.84,44,56,38.78,57.6,36c3-1.51,7.91-2.51,12.8-2.51,3,0,6.78.5,8.66,1.38v11.8Z"/>
    <path d="M175.31,64.25c0,21.58-12.42,33.76-31.5,33.76-20.2,0-31.62-11.55-31.62-33.76,0-19.7,13.55-31.75,31.62-31.75C162.63,32.5,175.31,43.8,175.31,64.25Zm-31.5,22c8.66,0,12.68-8.41,12.68-22,0-11.54-4.89-20.08-12.68-20.08-8.41,0-12.93,8-12.93,20.08C130.88,77.55,135.78,86.21,143.81,86.21Z"/>
    <path d="M209.94,83.83a32.45,32.45,0,0,1,8.16,2.26,35.58,35.58,0,0,1,.5,9.79H182.46a35.43,35.43,0,0,1,2-9.16,30.1,30.1,0,0,1,7.28-3.51V47.56h-9a30.72,30.72,0,0,1,3-11.54c3-1.51,7.91-2.51,12.8-2.51,3,0,6.78.5,8.66,1.38V44.8h1.88c3.39-6.78,9.66-12.3,20.45-12.3,10.54,0,18.55,3.24,20.58,23,.33,3.17-.1,14.57-1,28.23-.18,2.66,6.65,1.38,8.91,2.38a34.09,34.09,0,0,1,.63,6.9,22,22,0,0,1-.13,2.89H224.12a43,43,0,0,1,1.63-9.16c1.38-1.38,4-2.64,5.9-3.51V58.85c0-7.28-2.51-12.42-9.79-12.42-4.89,0-9.16,3.14-11.92,6.78Z"/>
    <path d="M271.18,18.45c3.26-1.76,10.42-3,15.19-3v19.2h17.44a43.59,43.59,0,0,1,.63,12.42H286.37V74.79c0,6.9,2.89,9,8,9a53.31,53.31,0,0,0,11.55-1.63,7.88,7.88,0,0,1,.12,1.51,23,23,0,0,1-3,10.29c-4.77,2.63-12.42,4-17.07,4-12,0-18.07-5.9-18.07-20.58,0-8.16.38-20.45,1.26-30.37h-9.41c0-3,1-8.91,2.26-11.55a29.42,29.42,0,0,1,6.9-2.76Z"/>
    <path d="M357,118.21c-4-.75-11.67-3.26-14.55-5L385.5,0a59.87,59.87,0,0,1,15.69,2.13Z"/>
    <path d="M409.59,96.5c-3.14-1.88-8.41-8.28-9.66-11.54l31-21.71V61.74L398.17,39.15c2.89-3.14,8.66-8,12.68-9.79L449.37,57l.63,9.66Z"/>
  </g>
</svg>
